#!OML:ASF Y:\EmotionMaleHayes\Project 1\Capture day 1\Session 1\Male1.ASF
:FULLY-SPECIFIED
:DEGREES
593
root 2.61442 16.3824 12.9314 -186.006 37.2148 -184.592
lowerback 8.64403 -1.02277 -8.69365
upperback 3.85674 -1.80324 0.0968992
thorax -0.521891 -0.905165 5.14441
lowerneck -19.6589 2.04817 5.32812
upperneck 31.9529 3.5201 -3.27355
head 14.4359 2.13121 -1.51372
rclavicle -6.00112e-014 -1.22998e-015
rhumerus -39.8445 -7.10078 -75.559
rradius 25.0582
rwrist 21.1905
rhand -9.11692 -32.8373
rfingers 7.12502
rthumb 16.8339 -62.1276
lclavicle -6.00112e-014 -1.22998e-015
lhumerus -27.4728 -16.2342 95.0787
lradius 43.6343
lwrist -5.44117
lhand -18.5644 -28.0056
lfingers 7.12502
lthumb 7.72564 1.83322
rfemur -19.9514 7.63477 8.88321
rtibia 28.7248
rfoot -10.9227 2.18434
rtoes -4.96056
lfemur 22.5 -6.04625 -31.9061
ltibia 29.0062
lfoot -3.02379 -11.1726
ltoes 23.673
594
root 2.74119 16.3961 12.8117 -185.973 36.8545 -184.199
lowerback 8.80075 -0.969532 -8.06988
upperback 3.87447 -1.69592 0.124483
thorax -0.630637 -0.840011 4.8177
lowerneck -19.6489 1.89542 5.3205
upperneck 32.0407 3.2593 -3.11654
head 14.4544 2.04824 -1.49484
rclavicle -1.50013e-014 -2.0686e-015
rhumerus -39.1184 -6.96341 -75.5729
rradius 25.3884
rwrist 20.2763
rhand -9.55886 -32.9886
rfingers 7.12502
rthumb 16.4084 -62.3146
lclavicle -1.50013e-014 -2.0686e-015
lhumerus -28.0603 -15.6568 95.0086
lradius 42.2533
lwrist -5.78064
lhand -18.4813 -27.5092
lfingers 7.12502
lthumb 7.80577 2.32671
rfemur -18.9674 7.49847 9.5231
rtibia 28.9911
rfoot -11.8575 2.04741
rtoes -4.96238
lfemur 21.7736 -5.62977 -30.9705
ltibia 31.4097
lfoot -0.612275 -10.7476
ltoes 23.9377
595
root 2.8657 16.4047 12.6993 -186.012 36.4931 -183.895
lowerback 9.01001 -0.894863 -7.65781
upperback 3.91099 -1.57532 0.19742
thorax -0.738105 -0.77089 4.65689
lowerneck -19.7671 1.74117 5.19779
upperneck 32.1678 3.02096 -2.93759
head 14.5184 1.9618 -1.44242
rclavicle 4.45262e-014 7.83957e-015
rhumerus -38.284 -6.94948 -75.4746
rradius 25.4456
rwrist 19.9034
rhand -9.74407 -33.0242
rfingers 7.12502
rthumb 16.2301 -62.3649
lclavicle 4.45262e-014 7.83957e-015
lhumerus -28.4727 -14.9263 94.9285
lradius 40.6641
lwrist -6.35435
lhand -18.3851 -27.165
lfingers 7.12502
lthumb 7.89866 2.66743
rfemur -18.0712 7.58927 10.0632
rtibia 29.3293
rfoot -12.8295 1.9981
rtoes -1.63353
lfemur 20.9674 -5.11651 -30.0117
ltibia 33.7932
lfoot 1.82635 -10.0146
ltoes 22.6676
596
root 2.98832 16.4122 12.5941 -185.749 36.2369 -183.158
lowerback 9.26499 -0.821976 -6.97559
upperback 3.90205 -1.44073 0.397815
thorax -0.924456 -0.691556 4.4767
lowerneck -20.0203 1.56272 4.92968
upperneck 32.4496 2.78624 -2.69734
head 14.6805 1.87145 -1.3381
rclavicle -8.29056e-014 8.02593e-015
rhumerus -37.4897 -7.0737 -75.2689
rradius 25.6225
rwrist 19.5933
rhand -9.83889 -33.1258
rfingers 7.12502
rthumb 16.1388 -62.4738
lclavicle -8.29056e-014 8.02593e-015
lhumerus -28.978 -14.3212 94.848
lradius 39.1521
lwrist -6.84541
lhand -18.2581 -27.0813
lfingers 7.12502
lthumb 8.02127 2.74649
rfemur -17.4796 7.79126 11.0553
rtibia 29.9607
rfoot -13.7556 2.03146
rtoes 0.174551
lfemur 20.05 -4.44624 -28.4678
ltibia 35.9801
lfoot 4.43135 -9.31153
ltoes 20.2521
597
root 3.11321 16.4218 12.4859 -185.234 35.9877 -182.085
lowerback 9.40648 -0.750093 -5.85887
upperback 3.87871 -1.26055 0.557885
thorax -1.0805 -0.587712 4.00045
lowerneck -20.1289 1.39117 4.97202
upperneck 32.6101 2.47915 -2.55183
head 14.7607 1.77538 -1.34045
rclavicle -3.94122e-014 9.6659e-015
rhumerus -36.8853 -7.62525 -75.0486
rradius 25.9478
rwrist 19.5177
rhand -9.95135 -33.092
rfingers 7.12502
rthumb 16.0305 -62.4489
lclavicle -3.94122e-014 9.6659e-015
lhumerus -29.5809 -13.992 94.6432
lradius 37.7691
lwrist -7.34383
lhand -17.954 -26.7858
lfingers 7.12502
lthumb 8.31472 3.03052
rfemur -16.0919 9.24481 12.5577
rtibia 29.2579
rfoot -14.3929 0.846122
rtoes -0.00964051
lfemur 18.9331 -3.92078 -26.7175
ltibia 38.41
lfoot 6.91026 -8.93172
ltoes 19.5504
598
root 3.22912 16.4327 12.3752 -184.817 35.6232 -181.284
lowerback 9.45997 -0.742081 -4.98504
upperback 3.86119 -1.17624 0.703708
thorax -1.15901 -0.536966 3.6524
lowerneck -20.032 1.27302 4.99858
upperneck 32.4468 2.26644 -2.50343
head 14.6532 1.69212 -1.36417
rclavicle -2.37051e-014 6.95746e-016
rhumerus -36.1144 -7.59653 -74.9907
rradius 26.2023
rwrist 18.9156
rhand -10.0773 -32.9574
rfingers 7.12502
rthumb 15.9092 -62.3239
lclavicle -2.37051e-014 6.95746e-016
lhumerus -30.0506 -13.2685 94.3256
lradius 36.3377
lwrist -8.16436
lhand -17.5614 -26.2094
lfingers 7.12502
lthumb 8.69359 3.59155
rfemur -15.4037 8.98779 13.5522
rtibia 29.5488
rfoot -15.1995 0.982537
rtoes -0.537068
lfemur 17.5626 -3.67184 -25.4928
ltibia 41.2112
lfoot 9.0559 -8.36237
ltoes 21.4695
599
root 3.33816 16.4475 12.266 -184.328 35.1681 -180.527
lowerback 9.64283 -0.694945 -3.92148
upperback 3.67734 -1.04176 0.698051
thorax -1.4908 -0.45461 3.03826
lowerneck -19.8118 1.06138 5.29849
upperneck 32.3348 1.85465 -2.49706
head 14.5356 1.55987 -1.48769
rclavicle 4.18597e-014 -5.92627e-015
rhumerus -35.6095 -7.50332 -75.0375
rradius 26.5785
rwrist 17.9349
rhand -10.3179 -32.8261
rfingers 7.12502
rthumb 15.6775 -62.211
lclavicle 4.18597e-014 -5.92627e-015
lhumerus -30.6198 -12.836 93.8747
lradius 34.7908
lwrist -9.0911
lhand -17.2336 -25.6969
lfingers 7.12502
lthumb 9.00989 4.09067
rfemur -14.5958 9.10934 14.4976
rtibia 29.4061
rfoot -15.9254 0.733233
rtoes -0.321295
lfemur 16.2566 -3.34626 -24.1967
ltibia 43.521
lfoot 11.1827 -7.4909
ltoes 23.2057
600
root 3.45439 16.4633 12.1632 -183.744 34.7441 -179.583
lowerback 9.6582 -0.644779 -2.95327
upperback 3.6517 -0.884831 0.851108
thorax -1.55592 -0.369637 2.63509
lowerneck -20.104 0.890542 5.09636
upperneck 32.4948 1.56707 -2.2148
head 14.6542 1.45659 -1.38816
rclavicle -9.55098e-014 1.82136e-014
rhumerus -34.9322 -7.57043 -74.9249
rradius 27.1077
rwrist 17.3106
rhand -10.4596 -32.8202
rfingers 7.12502
rthumb 15.5411 -62.2157
lclavicle -9.55098e-014 1.82136e-014
lhumerus -30.8108 -12.2683 93.4473
lradius 33.081
lwrist -9.99538
lhand -16.81 -25.5424
lfingers 7.12502
lthumb 9.41868 4.22712
rfemur -13.7585 9.22406 15.7151
rtibia 29.2358
rfoot -16.5556 0.33365
rtoes 0.0467887
lfemur 15.0316 -2.8325 -22.5043
ltibia 45.4763
lfoot 13.0946 -6.65191
ltoes 23.1522
601
root 3.57237 16.4765 12.0714 -183.071 34.3783 -178.379
lowerback 9.63378 -0.644893 -2.18644
upperback 3.72551 -0.792832 1.31989
thorax -1.47847 -0.319153 2.67808
lowerneck -20.2221 0.791014 4.81836
upperneck 32.3935 1.46788 -2.13378
head 14.6259 1.38361 -1.32494
rclavicle -6.6158e-014 2.33572e-015
rhumerus -34.0473 -7.21378 -74.7367
rradius 27.6766
rwrist 16.6298
rhand -9.9625 -33.2391
rfingers 7.12502
rthumb 16.0198 -62.5968
lclavicle -6.6158e-014 2.33572e-015
lhumerus -30.7928 -11.1192 93.1443
lradius 31.3722
lwrist -10.8794
lhand -16.1883 -25.4519
lfingers 7.12502
lthumb 10.0185 4.2897
rfemur -12.9567 9.26319 17.2505
rtibia 29.1317
rfoot -17.1494 -0.288138
rtoes -0.180981
lfemur 13.6462 -2.26819 -20.5139
ltibia 47.677
lfoot 14.0198 -6.22092
ltoes 19.9688
602
root 3.67719 16.4894 11.9732 -182.647 33.8973 -177.588
lowerback 9.82308 -0.684121 -1.32919
upperback 3.64874 -0.762018 1.46022
thorax -1.67636 -0.294734 2.33988
lowerneck -20.09 0.651061 4.6378
upperneck 32.226 1.23791 -1.89365
head 14.507 1.29422 -1.23628
rclavicle -2.59911e-014 -1.13307e-014
rhumerus -33.3212 -6.89087 -74.8555
rradius 28.062
rwrist 15.4108
rhand -10.2968 -33.4821
rfingers 7.12502
rthumb 15.6978 -62.8653
lclavicle -2.59911e-014 -1.13307e-014
lhumerus -31.0636 -10.1985 92.5897
lradius 29.8309
lwrist -11.7494
lhand -15.6174 -25.1133
lfingers 7.12502
lthumb 10.5692 4.60092
rfemur -12.1295 8.99708 18.251
rtibia 28.9253
rfoot -17.6041 -0.70554
rtoes -1.30272
lfemur 12.1588 -1.9491 -19.1885
ltibia 50.1341
lfoot 13.5379 -6.1201
ltoes 14.8967
603
root 3.77276 16.5042 11.8669 -182.493 33.397 -177.303
lowerback 9.81684 -0.676185 -0.898276
upperback 3.70955 -0.701543 1.52513
thorax -1.61863 -0.259765 2.15688
lowerneck -20.194 0.530951 4.5934
upperneck 32.0668 1.01516 -1.81137
head 14.4482 1.1956 -1.23573
rclavicle 1.17308e-013 -1.72446e-014
rhumerus -32.3129 -6.85311 -74.7769
rradius 28.4004
rwrist 14.2972
rhand -11.2978 -33.2524
rfingers 7.12502
rthumb 14.7336 -62.7088
lclavicle 1.17308e-013 -1.72446e-014
lhumerus -31.0477 -8.98745 91.9309
lradius 28.2155
lwrist -13.1699
lhand -15.1839 -24.8679
lfingers 7.12502
lthumb 10.9874 4.82459
rfemur -11.0592 9.06335 18.7615
rtibia 28.306
rfoot -17.9602 -1.24752
rtoes -2.34329
lfemur 10.5973 -1.71271 -18.575
ltibia 52.5126
lfoot 12.0985 -5.83958
ltoes 11.435
604
root 3.87065 16.5247 11.7687 -182.049 33.0865 -176.528
lowerback 9.92295 -0.589577 -0.0539233
upperback 3.70082 -0.495646 1.65373
thorax -1.70319 -0.148662 1.79265
lowerneck -20.2714 0.375423 4.65376
upperneck 31.9353 0.705158 -1.71532
head 14.3934 1.07777 -1.26299
rclavicle -1.03132e-013 9.0447e-015
rhumerus -31.6406 -7.4816 -74.4539
rradius 29.1997
rwrist 14.155
rhand -10.9322 -33.264
rfingers 7.12502
rthumb 15.0858 -62.6943
lclavicle -1.03132e-013 9.0447e-015
lhumerus -31.0734 -7.48456 90.9804
lradius 26.6069
lwrist -15.2124
lhand -14.4683 -24.7273
lfingers 7.12502
lthumb 11.6775 4.92721
rfemur -10.2297 8.92101 19.7399
rtibia 27.9497
rfoot -18.3596 -1.35379
rtoes -1.52588
lfemur 8.91599 -0.871869 -17.2227
ltibia 54.5244
lfoot 10.4448 -5.82686
ltoes 7.8751
605
root 3.96497 16.5508 11.6859 -181.526 32.8778 -175.623
lowerback 10.1877 -0.5588 0.663403
upperback 3.66103 -0.359238 1.97253
thorax -1.89752 -0.07183 1.70599
lowerneck -20.3033 0.244143 4.04789
upperneck 31.7046 0.606303 -1.43827
head 14.29 0.98741 -1.06394
rclavicle 4.03906e-014 -1.71949e-014
rhumerus -30.3932 -5.48084 -74.76
rradius 29.1659
rwrist 11.8782
rhand -11.0937 -33.6974
rfingers 7.12502
rthumb 14.9302 -63.1393
lclavicle 4.03906e-014 -1.71949e-014
lhumerus -31.0929 -5.37896 89.9274
lradius 25.0375
lwrist -17.401
lhand -13.7491 -24.3376
lfingers 7.12502
lthumb 12.371 5.27637
rfemur -9.70157 8.77038 20.7914
rtibia 27.8414
rfoot -18.6827 -1.13358
rtoes 1.63826
lfemur 7.007 0.285349 -15.5774
ltibia 56.6747
lfoot 8.75424 -5.98367
ltoes 7.19712
606
root 4.05907 16.5774 11.6022 -181.362 32.5691 -175.231
lowerback 10.5862 -0.531378 1.01143
upperback 3.57526 -0.264542 2.13393
thorax -2.20862 -0.0200513 1.66978
lowerneck -20.2046 0.0754249 3.84985
upperneck 31.6051 0.394539 -1.33255
head 14.2155 0.886281 -1.02426
rclavicle -1.92573e-014 -8.15017e-015
rhumerus -29.6353 -4.76686 -74.7497
rradius 29.5085
rwrist 11.2193
rhand -11.7475 -33.7888
rfingers 7.12502
rthumb 14.3003 -63.2763
lclavicle -1.92573e-014 -8.15017e-015
lhumerus -31.2889 -3.28963 88.715
lradius 23.5571
lwrist -19.7285
lhand -13.1424 -24.3086
lfingers 7.12502
lthumb 12.9559 5.26916
rfemur -9.00594 8.62849 21.3556
rtibia 27.595
rfoot -18.9442 -1.23626
rtoes 2.06618
lfemur 5.15554 1.15089 -14.6165
ltibia 58.7853
lfoot 7.25237 -5.83424
ltoes 11.6986
607
root 4.15656 16.6007 11.4827 -181.757 31.9984 -175.711
lowerback 10.8024 -0.483209 1.01481
upperback 3.45893 -0.211521 1.88241
thorax -2.45019 0.00251912 1.40228
lowerneck -20.1551 -0.217171 3.3967
upperneck 31.7589 -0.0103175 -0.837163
head 14.2602 0.742597 -0.814884
rclavicle 1.5294e-014 2.01766e-014
rhumerus -29.2288 -4.36572 -74.7759
rradius 30.1235
rwrist 9.82233
rhand -11.544 -33.9242
rfingers 7.12502
rthumb 14.4964 -63.3978
lclavicle 1.5294e-014 2.01766e-014
lhumerus -31.6703 -1.30842 87.2189
lradius 22.1163
lwrist -22.6087
lhand -12.5164 -25.0236
lfingers 7.12502
lthumb 13.5593 4.51487
rfemur -7.75934 7.71257 20.9159
rtibia 26.8637
rfoot -19.1113 -1.31918
rtoes -3.03325
lfemur 3.72874 1.70068 -14.882
ltibia 60.2277
lfoot 5.88326 -5.41307
ltoes 13.9904
